# xmcd
#
# Track frame offsets: 
#        150
#        18474
#        36739
#        54309
#        71311
#        93919
#        109577
#        126581
#        151392
#        168979
#
# Disc length: 2515 seconds
#
# Revision: 0
# Processed by: cddbd v1.5.2PL0 Copyright (c) Steve Scherf et al.
# Submitted via: ExactAudioCopy v0.95a4
#
DISCID=8109d10a
DTITLE=Cícero Fontoura - Para o Silêncio dos Mates
DYEAR=2007
DGENRE=nativista
TTITLE0=En El Rancho y La Cambicha
TTITLE1=Torquato Flores, Senhores
TTITLE2=Pedro Canoeiro
TTITLE3=Rumo a Fronteira
TTITLE4=A um Parceiro que se foi
TTITLE5=Vento Negro
TTITLE6=Stephanie (instrumental)
TTITLE7=Lá Fora
TTITLE8=Merceditas
TTITLE9=Portas do Sonho
EXTD=
EXTT0=
EXTT1=
EXTT2=
EXTT3=
EXTT4=
EXTT5=
EXTT6=
EXTT7=
EXTT8=
EXTT9=
PLAYORDER=
